<svg width="16" height="20" viewBox="0 0 16 20" fill="none" xmlns="http://www.w3.org/2000/svg">
<path d="M8.22634 4.79935C9.07223 4.79935 10.1326 4.2099 10.764 3.42398C11.3359 2.71173 11.7529 1.71704 11.7529 0.722357C11.7529 0.587276 11.741 0.452196 11.7171 0.341675C10.7759 0.378515 9.6441 0.992519 8.965 1.81529C8.42887 2.44157 7.9404 3.42398 7.9404 4.43095C7.9404 4.57831 7.96423 4.72567 7.97614 4.77479C8.03571 4.78707 8.13102 4.79935 8.22634 4.79935ZM5.24783 19.6583C6.40349 19.6583 6.91579 18.8601 8.35739 18.8601C9.82281 18.8601 10.1445 19.6337 11.4312 19.6337C12.6941 19.6337 13.54 18.4303 14.3382 17.2514C15.2318 15.9006 15.6011 14.5743 15.6249 14.5129C15.5415 14.4883 13.123 13.4691 13.123 10.6078C13.123 8.12725 15.0292 7.00977 15.1365 6.92381C13.8736 5.05723 11.9554 5.00811 11.4312 5.00811C10.0134 5.00811 8.85778 5.89228 8.13102 5.89228C7.3447 5.89228 6.30818 5.05723 5.08104 5.05723C2.74589 5.05723 0.375 7.04661 0.375 10.8043C0.375 13.1375 1.25664 15.6058 2.34081 17.2022C3.27011 18.5531 4.08026 19.6583 5.24783 19.6583Z" fill="#FBFCFD"/>
</svg>
