<svg width="102" height="136" viewBox="0 0 102 136" fill="none" xmlns="http://www.w3.org/2000/svg">
<rect width="102" height="102" rx="20.5468" fill="#FF5F2C"/>
<path d="M20.1799 42.8139C20.1799 21.4084 33.9785 11.3741 51.0005 11.3741C68.0225 11.3741 81.8211 21.4084 81.8211 42.8139C81.8211 61.4865 58.3684 85.9211 52.3797 90.518C51.5551 91.1508 50.4468 91.1508 49.6222 90.518C43.6326 85.9202 20.1799 61.4856 20.1799 42.8139Z" fill="white"/>
<path d="M58.9376 57.3035L58.935 57.2957C58.8602 57.0742 58.9153 56.8295 59.0752 56.6587C67.578 47.5542 66.8395 35.8774 66.0097 30.846C65.7595 29.328 64.511 28.1689 62.9762 28.0299C57.8904 27.5688 46.1743 27.6821 37.6981 36.8106C37.5391 36.9824 37.2992 37.0553 37.0722 36.9961L37.0644 36.9944C34.0181 36.2131 28.2624 35.7803 22.2986 40.8426C21.3261 41.6685 21.4929 43.2131 22.6288 43.7944L30.0637 47.5997C30.399 47.7714 30.663 48.2204 30.6553 48.5965C30.5529 53.6038 28.8264 57.4477 25.1721 60.026C27.8961 65.3201 31.436 70.4905 35.018 75.0539C36.8675 68.4248 41.2277 65.1424 47.8149 64.5285C48.1906 64.4933 48.6575 64.7234 48.8535 65.0454L53.194 72.1734C53.8569 73.2621 55.4123 73.3162 56.1664 72.2876C60.7897 65.9812 59.9393 60.2802 58.9376 57.3026V57.3035ZM31.0542 48.126L31.0104 48.0848L31.0602 48.1105C31.0585 48.1157 31.0568 48.1208 31.0551 48.126H31.0542ZM48.2551 64.0966C48.2603 64.094 48.2654 64.0923 48.2706 64.0897L48.2998 64.137L48.256 64.0958L48.2551 64.0966Z" fill="#FF5F2C"/>
<path d="M51.0006 51.4075C55.1676 51.4075 58.5456 48.0344 58.5456 43.8734C58.5456 39.7124 55.1676 36.3393 51.0006 36.3393C46.8336 36.3393 43.4556 39.7124 43.4556 43.8734C43.4556 48.0344 46.8336 51.4075 51.0006 51.4075Z" fill="white"/>
<path d="M85.1188 118.268C85.4924 118.268 85.7686 118.398 85.9473 118.658C86.1259 118.918 86.2153 119.226 86.2153 119.584C86.2153 119.941 86.1259 120.25 85.9473 120.51C85.7686 120.77 85.4924 120.9 85.1188 120.9H80.9277V134.399C80.9277 134.87 80.7734 135.211 80.4647 135.422C80.1561 135.633 79.7906 135.739 79.3682 135.739C78.9459 135.739 78.5804 135.633 78.2717 135.422C77.9631 135.211 77.8088 134.87 77.8088 134.399V120.9H73.5933C73.2197 120.9 72.9436 120.77 72.7649 120.51C72.5862 120.25 72.4968 119.941 72.4968 119.584C72.4968 119.226 72.5862 118.918 72.7649 118.658C72.9436 118.398 73.2197 118.268 73.5933 118.268H85.1188Z" fill="#FF5F2C"/>
<path d="M65.9024 118.122C66.3248 118.122 66.6903 118.219 66.9989 118.414C67.3076 118.609 67.5756 118.991 67.803 119.559L73.2856 133.692C73.4642 134.163 73.4642 134.569 73.2856 134.911C73.1069 135.252 72.8145 135.487 72.4083 135.617C72.0022 135.747 71.5961 135.763 71.19 135.666C70.8001 135.568 70.5159 135.26 70.3372 134.74L68.9239 130.841H62.7835L61.3459 134.837C61.1672 135.308 60.891 135.593 60.5174 135.69C60.16 135.771 59.7864 135.747 59.3965 135.617C59.0067 135.487 58.7224 135.268 58.5437 134.959C58.365 134.651 58.365 134.269 58.5437 133.814L64.0262 119.559C64.2374 118.991 64.4973 118.609 64.8059 118.414C65.1308 118.219 65.4963 118.122 65.9024 118.122ZM65.8537 122.021C65.7237 122.508 65.5938 122.946 65.4638 123.336C65.3501 123.71 65.1958 124.173 65.0009 124.725L63.7094 128.258H67.998L66.7309 124.725C66.5197 124.157 66.3492 123.669 66.2192 123.263C66.1055 122.857 65.9837 122.443 65.8537 122.021Z" fill="#FF5F2C"/>
<path d="M50.9607 118C52.0815 118 53.0562 118.122 53.8847 118.366C54.7131 118.609 55.4116 118.926 55.9802 119.316C56.3538 119.576 56.5569 119.892 56.5894 120.266C56.6219 120.64 56.5244 120.989 56.297 121.314C56.0858 121.623 55.8096 121.826 55.4685 121.923C55.1274 122.021 54.7862 121.964 54.4451 121.752C53.9253 121.444 53.3973 121.225 52.8613 121.095C52.3252 120.948 51.6673 120.875 50.8876 120.875C49.5393 120.875 48.4996 121.322 47.7686 122.215C47.0376 123.093 46.6721 124.579 46.6721 126.675V127.186C46.6721 129.233 47.0214 130.711 47.7199 131.621C48.4184 132.514 49.4824 132.961 50.9119 132.961C51.7241 132.961 52.4308 132.872 53.0318 132.693C53.6491 132.498 54.242 132.214 54.8106 131.84C55.1355 131.613 55.4766 131.532 55.834 131.597C56.1914 131.645 56.4919 131.84 56.7356 132.181C56.9792 132.523 57.0767 132.896 57.028 133.302C56.9792 133.708 56.7599 134.05 56.3701 134.326C55.6716 134.829 54.8512 135.211 53.909 135.471C52.9831 135.731 51.9597 135.861 50.8388 135.861C49.6855 135.861 48.6539 135.698 47.7443 135.373C46.8508 135.049 46.0873 134.545 45.4538 133.863C44.8365 133.18 44.3573 132.311 44.0161 131.255C43.6913 130.183 43.5288 128.908 43.5288 127.43V126.431C43.5288 124.953 43.6913 123.686 44.0161 122.63C44.3573 121.558 44.8446 120.68 45.4781 119.998C46.1117 119.316 46.8914 118.812 47.8174 118.487C48.7433 118.162 49.7911 118 50.9607 118Z" fill="#FF5F2C"/>
<path d="M34.1786 118C35.3645 118 36.4204 118.162 37.3463 118.487C38.2722 118.812 39.052 119.316 39.6855 119.998C40.319 120.68 40.7983 121.558 41.1231 122.63C41.4643 123.686 41.6348 124.953 41.6348 126.431V127.43C41.6348 128.908 41.4643 130.183 41.1231 131.255C40.7983 132.311 40.319 133.18 39.6855 133.863C39.052 134.545 38.2722 135.049 37.3463 135.373C36.4204 135.698 35.3645 135.861 34.1786 135.861C32.9928 135.861 31.9369 135.698 31.011 135.373C30.085 135.049 29.3053 134.545 28.6718 133.863C28.0382 133.18 27.5509 132.311 27.2097 131.255C26.8849 130.183 26.7224 128.908 26.7224 127.43V126.431C26.7224 124.953 26.8849 123.686 27.2097 122.63C27.5509 121.558 28.0382 120.68 28.6718 119.998C29.3053 119.316 30.085 118.812 31.011 118.487C31.9369 118.162 32.9928 118 34.1786 118ZM34.1786 120.851C33.4639 120.851 32.8385 120.948 32.3024 121.143C31.7663 121.338 31.3115 121.663 30.9379 122.118C30.5805 122.557 30.3124 123.15 30.1338 123.897C29.9551 124.644 29.8657 125.57 29.8657 126.675V127.186C29.8657 128.291 29.9551 129.217 30.1338 129.964C30.3124 130.711 30.5805 131.312 30.9379 131.767C31.3115 132.206 31.7663 132.523 32.3024 132.718C32.8385 132.912 33.4639 133.01 34.1786 133.01C34.8934 133.01 35.5188 132.912 36.0549 132.718C36.5909 132.523 37.0377 132.206 37.395 131.767C37.7687 131.312 38.0448 130.711 38.2235 129.964C38.4022 129.217 38.4915 128.291 38.4915 127.186V126.675C38.4915 125.57 38.4022 124.644 38.2235 123.897C38.0448 123.15 37.7687 122.557 37.395 122.118C37.0377 121.663 36.5909 121.338 36.0549 121.143C35.5188 120.948 34.8934 120.851 34.1786 120.851Z" fill="#FF5F2C"/>
<path d="M16.5595 118.122C16.9818 118.122 17.3473 118.227 17.656 118.439C17.9646 118.65 18.1189 118.991 18.1189 119.462V132.961H25.1853C25.5589 132.961 25.8351 133.091 26.0138 133.351C26.1925 133.611 26.2818 133.92 26.2818 134.277C26.2818 134.634 26.1925 134.943 26.0138 135.203C25.8351 135.463 25.5589 135.593 25.1853 135.593H17.0712C16.2914 135.593 15.7472 135.447 15.4386 135.154C15.1462 134.862 15 134.334 15 133.57V119.462C15 118.991 15.1543 118.65 15.463 118.439C15.7716 118.227 16.1371 118.122 16.5595 118.122Z" fill="#FF5F2C"/>
</svg>
